<mxfile host="Electron" modified="2023-12-14T10:32:44.562Z" agent="Mozilla/5.0 (Windows NT 10.0; Win64; x64) AppleWebKit/537.36 (KHTML, like Gecko) draw.io/21.2.1 Chrome/112.0.5615.87 Electron/24.1.2 Safari/537.36" etag="-uCpZDrrh8Qpv7Kl6a5O" version="21.2.1" type="device">
  <diagram name="Page-1" id="1Q_ZQuWX1y6BENdiLmje">
    <mxGraphModel dx="1615" dy="968" grid="1" gridSize="10" guides="1" tooltips="1" connect="1" arrows="1" fold="1" page="1" pageScale="1" pageWidth="850" pageHeight="1100" math="0" shadow="0">
      <root>
        <mxCell id="0" />
        <mxCell id="1" parent="0" />
        <mxCell id="LeyZFT0NoXOJv5G2dEH9-37" value="" style="rounded=1;whiteSpace=wrap;html=1;fillColor=none;strokeColor=#A9C4EB;" vertex="1" parent="1">
          <mxGeometry x="360" y="470" width="200" height="250" as="geometry" />
        </mxCell>
        <mxCell id="LeyZFT0NoXOJv5G2dEH9-38" value="" style="rounded=1;whiteSpace=wrap;html=1;fillColor=none;strokeColor=#A9C4EB;" vertex="1" parent="1">
          <mxGeometry x="120" y="470" width="200" height="250" as="geometry" />
        </mxCell>
        <mxCell id="LeyZFT0NoXOJv5G2dEH9-2" value="User&lt;br&gt;Embeddings" style="rounded=0;whiteSpace=wrap;html=1;" vertex="1" parent="1">
          <mxGeometry x="120" y="120" width="80" height="160" as="geometry" />
        </mxCell>
        <mxCell id="LeyZFT0NoXOJv5G2dEH9-3" value="" style="rounded=0;whiteSpace=wrap;html=1;fillColor=#dae8fc;strokeColor=default;" vertex="1" parent="1">
          <mxGeometry x="120" y="140" width="80" height="20" as="geometry" />
        </mxCell>
        <mxCell id="LeyZFT0NoXOJv5G2dEH9-4" value="" style="rounded=0;whiteSpace=wrap;html=1;rotation=-90;" vertex="1" parent="1">
          <mxGeometry x="300" y="120" width="80" height="160" as="geometry" />
        </mxCell>
        <mxCell id="LeyZFT0NoXOJv5G2dEH9-5" value="" style="rounded=0;whiteSpace=wrap;html=1;rotation=-90;fillColor=#d5e8d4;strokeColor=default;" vertex="1" parent="1">
          <mxGeometry x="250" y="190" width="80" height="20" as="geometry" />
        </mxCell>
        <mxCell id="LeyZFT0NoXOJv5G2dEH9-6" value="" style="endArrow=none;html=1;rounded=0;" edge="1" parent="1">
          <mxGeometry width="50" height="50" relative="1" as="geometry">
            <mxPoint x="220" y="210" as="sourcePoint" />
            <mxPoint x="240" y="190" as="targetPoint" />
          </mxGeometry>
        </mxCell>
        <mxCell id="LeyZFT0NoXOJv5G2dEH9-7" value="" style="endArrow=none;html=1;rounded=0;" edge="1" parent="1">
          <mxGeometry width="50" height="50" relative="1" as="geometry">
            <mxPoint x="220" y="190" as="sourcePoint" />
            <mxPoint x="240" y="210" as="targetPoint" />
          </mxGeometry>
        </mxCell>
        <mxCell id="LeyZFT0NoXOJv5G2dEH9-8" value="Item&lt;br style=&quot;border-color: var(--border-color);&quot;&gt;&lt;span style=&quot;background-color: rgb(255, 255, 255);&quot;&gt;Embeddings&lt;/span&gt;" style="text;html=1;strokeColor=none;fillColor=none;align=center;verticalAlign=middle;whiteSpace=wrap;rounded=0;" vertex="1" parent="1">
          <mxGeometry x="330" y="185" width="60" height="30" as="geometry" />
        </mxCell>
        <mxCell id="LeyZFT0NoXOJv5G2dEH9-12" value="Rating" style="text;html=1;align=center;verticalAlign=middle;resizable=0;points=[];autosize=1;strokeColor=none;fillColor=none;" vertex="1" parent="1">
          <mxGeometry x="510" y="185" width="60" height="30" as="geometry" />
        </mxCell>
        <mxCell id="LeyZFT0NoXOJv5G2dEH9-15" value="NeuMF Layer" style="rounded=0;whiteSpace=wrap;html=1;fillColor=#fff2cc;strokeColor=#d6b656;" vertex="1" parent="1">
          <mxGeometry x="240" y="440" width="200" height="20" as="geometry" />
        </mxCell>
        <mxCell id="LeyZFT0NoXOJv5G2dEH9-16" value="GMF Layer" style="rounded=0;whiteSpace=wrap;html=1;fillColor=#dae8fc;strokeColor=#6c8ebf;" vertex="1" parent="1">
          <mxGeometry x="150" y="550" width="140" height="20" as="geometry" />
        </mxCell>
        <mxCell id="LeyZFT0NoXOJv5G2dEH9-17" value="MLP Layer N" style="rounded=0;whiteSpace=wrap;html=1;fillColor=#d5e8d4;strokeColor=#82b366;" vertex="1" parent="1">
          <mxGeometry x="410" y="488" width="100" height="20" as="geometry" />
        </mxCell>
        <mxCell id="LeyZFT0NoXOJv5G2dEH9-28" style="edgeStyle=orthogonalEdgeStyle;rounded=0;orthogonalLoop=1;jettySize=auto;html=1;exitX=0.5;exitY=0;exitDx=0;exitDy=0;entryX=0.5;entryY=1;entryDx=0;entryDy=0;endArrow=classicThin;endFill=1;" edge="1" parent="1" source="LeyZFT0NoXOJv5G2dEH9-18" target="LeyZFT0NoXOJv5G2dEH9-20">
          <mxGeometry relative="1" as="geometry" />
        </mxCell>
        <mxCell id="LeyZFT0NoXOJv5G2dEH9-18" value="MLP Layer 2" style="rounded=0;whiteSpace=wrap;html=1;fillColor=#d5e8d4;strokeColor=#82b366;" vertex="1" parent="1">
          <mxGeometry x="390" y="566" width="140" height="20" as="geometry" />
        </mxCell>
        <mxCell id="LeyZFT0NoXOJv5G2dEH9-27" style="edgeStyle=orthogonalEdgeStyle;rounded=0;orthogonalLoop=1;jettySize=auto;html=1;exitX=0.5;exitY=0;exitDx=0;exitDy=0;entryX=0.5;entryY=1;entryDx=0;entryDy=0;endArrow=classicThin;endFill=1;" edge="1" parent="1" source="LeyZFT0NoXOJv5G2dEH9-19" target="LeyZFT0NoXOJv5G2dEH9-18">
          <mxGeometry relative="1" as="geometry" />
        </mxCell>
        <mxCell id="LeyZFT0NoXOJv5G2dEH9-19" value="MLP Layer 1" style="rounded=0;whiteSpace=wrap;html=1;fillColor=#d5e8d4;strokeColor=#82b366;" vertex="1" parent="1">
          <mxGeometry x="370" y="606" width="180" height="20" as="geometry" />
        </mxCell>
        <mxCell id="LeyZFT0NoXOJv5G2dEH9-29" style="edgeStyle=orthogonalEdgeStyle;rounded=0;orthogonalLoop=1;jettySize=auto;html=1;exitX=0.5;exitY=0;exitDx=0;exitDy=0;entryX=0.5;entryY=1;entryDx=0;entryDy=0;endArrow=classicThin;endFill=1;" edge="1" parent="1" source="LeyZFT0NoXOJv5G2dEH9-20" target="LeyZFT0NoXOJv5G2dEH9-17">
          <mxGeometry relative="1" as="geometry" />
        </mxCell>
        <mxCell id="LeyZFT0NoXOJv5G2dEH9-20" value="&lt;b&gt;&lt;font style=&quot;font-size: 12px;&quot;&gt;...&lt;/font&gt;&lt;/b&gt;" style="text;html=1;strokeColor=none;fillColor=none;align=center;verticalAlign=middle;whiteSpace=wrap;rounded=0;" vertex="1" parent="1">
          <mxGeometry x="430" y="530" width="60" height="15" as="geometry" />
        </mxCell>
        <mxCell id="LeyZFT0NoXOJv5G2dEH9-21" value="" style="endArrow=classicThin;html=1;rounded=0;exitX=0.5;exitY=0;exitDx=0;exitDy=0;entryX=0.5;entryY=1;entryDx=0;entryDy=0;endFill=1;" edge="1" parent="1" source="LeyZFT0NoXOJv5G2dEH9-16" target="LeyZFT0NoXOJv5G2dEH9-15">
          <mxGeometry width="50" height="50" relative="1" as="geometry">
            <mxPoint x="290" y="540" as="sourcePoint" />
            <mxPoint x="340" y="490" as="targetPoint" />
          </mxGeometry>
        </mxCell>
        <mxCell id="LeyZFT0NoXOJv5G2dEH9-22" value="" style="endArrow=classicThin;html=1;rounded=0;entryX=0.5;entryY=1;entryDx=0;entryDy=0;exitX=0.5;exitY=0;exitDx=0;exitDy=0;endFill=1;" edge="1" parent="1" source="LeyZFT0NoXOJv5G2dEH9-17" target="LeyZFT0NoXOJv5G2dEH9-15">
          <mxGeometry width="50" height="50" relative="1" as="geometry">
            <mxPoint x="300" y="540" as="sourcePoint" />
            <mxPoint x="350" y="490" as="targetPoint" />
          </mxGeometry>
        </mxCell>
        <mxCell id="LeyZFT0NoXOJv5G2dEH9-23" value="Concatenate" style="text;html=1;align=center;verticalAlign=middle;resizable=0;points=[];autosize=1;strokeColor=none;fillColor=none;fontSize=9;" vertex="1" parent="1">
          <mxGeometry x="260" y="460" width="70" height="20" as="geometry" />
        </mxCell>
        <mxCell id="LeyZFT0NoXOJv5G2dEH9-24" value="ReLU" style="text;html=1;align=center;verticalAlign=middle;resizable=0;points=[];autosize=1;strokeColor=none;fillColor=none;fontSize=9;" vertex="1" parent="1">
          <mxGeometry x="450" y="473" width="50" height="20" as="geometry" />
        </mxCell>
        <mxCell id="LeyZFT0NoXOJv5G2dEH9-25" value="ReLU" style="text;html=1;align=center;verticalAlign=middle;resizable=0;points=[];autosize=1;strokeColor=none;fillColor=none;fontSize=9;" vertex="1" parent="1">
          <mxGeometry x="462" y="551" width="50" height="20" as="geometry" />
        </mxCell>
        <mxCell id="LeyZFT0NoXOJv5G2dEH9-26" value="ReLU" style="text;html=1;align=center;verticalAlign=middle;resizable=0;points=[];autosize=1;strokeColor=none;fillColor=none;fontSize=9;" vertex="1" parent="1">
          <mxGeometry x="462" y="591" width="50" height="20" as="geometry" />
        </mxCell>
        <mxCell id="LeyZFT0NoXOJv5G2dEH9-33" value="" style="endArrow=classicThin;html=1;rounded=0;endFill=1;" edge="1" parent="1">
          <mxGeometry width="50" height="50" relative="1" as="geometry">
            <mxPoint x="440" y="200" as="sourcePoint" />
            <mxPoint x="500" y="200" as="targetPoint" />
          </mxGeometry>
        </mxCell>
        <mxCell id="LeyZFT0NoXOJv5G2dEH9-34" value="" style="endArrow=classicThin;html=1;rounded=0;exitX=0.5;exitY=0;exitDx=0;exitDy=0;endFill=1;" edge="1" parent="1" source="LeyZFT0NoXOJv5G2dEH9-15">
          <mxGeometry width="50" height="50" relative="1" as="geometry">
            <mxPoint x="160" y="560" as="sourcePoint" />
            <mxPoint x="400" y="400" as="targetPoint" />
            <Array as="points">
              <mxPoint x="340" y="400" />
            </Array>
          </mxGeometry>
        </mxCell>
        <mxCell id="LeyZFT0NoXOJv5G2dEH9-36" value="Rating" style="text;html=1;strokeColor=none;fillColor=none;align=center;verticalAlign=middle;whiteSpace=wrap;rounded=0;" vertex="1" parent="1">
          <mxGeometry x="410" y="390" width="60" height="20" as="geometry" />
        </mxCell>
        <mxCell id="LeyZFT0NoXOJv5G2dEH9-43" value="User&amp;nbsp; &amp;nbsp; &amp;nbsp; &amp;nbsp; &amp;nbsp; &amp;nbsp; Item" style="text;html=1;strokeColor=none;fillColor=none;align=center;verticalAlign=middle;whiteSpace=wrap;rounded=0;" vertex="1" parent="1">
          <mxGeometry x="280" y="770" width="120" height="30" as="geometry" />
        </mxCell>
        <mxCell id="LeyZFT0NoXOJv5G2dEH9-44" value="GMF Embeddings" style="rounded=0;whiteSpace=wrap;html=1;fillColor=#dae8fc;strokeColor=#6c8ebf;" vertex="1" parent="1">
          <mxGeometry x="140" y="670" width="160" height="30" as="geometry" />
        </mxCell>
        <mxCell id="LeyZFT0NoXOJv5G2dEH9-45" value="MLP Embeddings" style="rounded=0;whiteSpace=wrap;html=1;fillColor=#d5e8d4;strokeColor=#82b366;" vertex="1" parent="1">
          <mxGeometry x="380" y="670" width="160" height="30" as="geometry" />
        </mxCell>
        <mxCell id="LeyZFT0NoXOJv5G2dEH9-47" value="" style="endArrow=classicThin;html=1;rounded=0;entryX=0.25;entryY=1;entryDx=0;entryDy=0;exitX=0.25;exitY=0;exitDx=0;exitDy=0;endFill=1;" edge="1" parent="1" source="LeyZFT0NoXOJv5G2dEH9-43" target="LeyZFT0NoXOJv5G2dEH9-44">
          <mxGeometry width="50" height="50" relative="1" as="geometry">
            <mxPoint x="230" y="670" as="sourcePoint" />
            <mxPoint x="280" y="620" as="targetPoint" />
          </mxGeometry>
        </mxCell>
        <mxCell id="LeyZFT0NoXOJv5G2dEH9-48" value="" style="endArrow=classicThin;html=1;rounded=0;entryX=0.25;entryY=1;entryDx=0;entryDy=0;exitX=0.25;exitY=0;exitDx=0;exitDy=0;endFill=1;" edge="1" parent="1" source="LeyZFT0NoXOJv5G2dEH9-43" target="LeyZFT0NoXOJv5G2dEH9-45">
          <mxGeometry width="50" height="50" relative="1" as="geometry">
            <mxPoint x="320" y="780" as="sourcePoint" />
            <mxPoint x="190" y="710" as="targetPoint" />
          </mxGeometry>
        </mxCell>
        <mxCell id="LeyZFT0NoXOJv5G2dEH9-49" value="" style="endArrow=classicThin;html=1;rounded=0;entryX=0.75;entryY=1;entryDx=0;entryDy=0;exitX=0.75;exitY=0;exitDx=0;exitDy=0;endFill=1;" edge="1" parent="1" source="LeyZFT0NoXOJv5G2dEH9-43" target="LeyZFT0NoXOJv5G2dEH9-45">
          <mxGeometry width="50" height="50" relative="1" as="geometry">
            <mxPoint x="320" y="780" as="sourcePoint" />
            <mxPoint x="430" y="710" as="targetPoint" />
          </mxGeometry>
        </mxCell>
        <mxCell id="LeyZFT0NoXOJv5G2dEH9-50" value="" style="endArrow=classicThin;html=1;rounded=0;entryX=0.75;entryY=1;entryDx=0;entryDy=0;endFill=1;" edge="1" parent="1" target="LeyZFT0NoXOJv5G2dEH9-44">
          <mxGeometry width="50" height="50" relative="1" as="geometry">
            <mxPoint x="370" y="770" as="sourcePoint" />
            <mxPoint x="510" y="710" as="targetPoint" />
          </mxGeometry>
        </mxCell>
        <mxCell id="LeyZFT0NoXOJv5G2dEH9-51" value="" style="endArrow=classicThin;html=1;rounded=0;entryX=0.5;entryY=1;entryDx=0;entryDy=0;exitX=0.25;exitY=0;exitDx=0;exitDy=0;endFill=1;" edge="1" parent="1" source="LeyZFT0NoXOJv5G2dEH9-45" target="LeyZFT0NoXOJv5G2dEH9-19">
          <mxGeometry width="50" height="50" relative="1" as="geometry">
            <mxPoint x="230" y="590" as="sourcePoint" />
            <mxPoint x="280" y="540" as="targetPoint" />
          </mxGeometry>
        </mxCell>
        <mxCell id="LeyZFT0NoXOJv5G2dEH9-52" value="" style="endArrow=classicThin;html=1;rounded=0;entryX=0.5;entryY=1;entryDx=0;entryDy=0;exitX=0.75;exitY=0;exitDx=0;exitDy=0;endFill=1;" edge="1" parent="1" source="LeyZFT0NoXOJv5G2dEH9-45" target="LeyZFT0NoXOJv5G2dEH9-19">
          <mxGeometry width="50" height="50" relative="1" as="geometry">
            <mxPoint x="430" y="680" as="sourcePoint" />
            <mxPoint x="470" y="636" as="targetPoint" />
          </mxGeometry>
        </mxCell>
        <mxCell id="LeyZFT0NoXOJv5G2dEH9-53" value="Concatenate" style="text;html=1;align=center;verticalAlign=middle;resizable=0;points=[];autosize=1;strokeColor=none;fillColor=none;fontSize=9;" vertex="1" parent="1">
          <mxGeometry x="380" y="630" width="70" height="20" as="geometry" />
        </mxCell>
        <mxCell id="LeyZFT0NoXOJv5G2dEH9-54" value="" style="endArrow=classicThin;html=1;rounded=0;entryX=0.5;entryY=1;entryDx=0;entryDy=0;exitX=0.25;exitY=0;exitDx=0;exitDy=0;endFill=1;" edge="1" parent="1" source="LeyZFT0NoXOJv5G2dEH9-44" target="LeyZFT0NoXOJv5G2dEH9-16">
          <mxGeometry width="50" height="50" relative="1" as="geometry">
            <mxPoint x="430" y="680" as="sourcePoint" />
            <mxPoint x="470" y="636" as="targetPoint" />
          </mxGeometry>
        </mxCell>
        <mxCell id="LeyZFT0NoXOJv5G2dEH9-55" value="" style="endArrow=classicThin;html=1;rounded=0;entryX=0.5;entryY=1;entryDx=0;entryDy=0;exitX=0.75;exitY=0;exitDx=0;exitDy=0;endFill=1;" edge="1" parent="1" source="LeyZFT0NoXOJv5G2dEH9-44" target="LeyZFT0NoXOJv5G2dEH9-16">
          <mxGeometry width="50" height="50" relative="1" as="geometry">
            <mxPoint x="190" y="680" as="sourcePoint" />
            <mxPoint x="230" y="580" as="targetPoint" />
          </mxGeometry>
        </mxCell>
        <mxCell id="LeyZFT0NoXOJv5G2dEH9-56" value="Elementwise&lt;br&gt;Product" style="text;html=1;align=center;verticalAlign=middle;resizable=0;points=[];autosize=1;strokeColor=none;fillColor=none;fontSize=9;" vertex="1" parent="1">
          <mxGeometry x="150" y="570" width="70" height="40" as="geometry" />
        </mxCell>
        <mxCell id="LeyZFT0NoXOJv5G2dEH9-57" value="GMF" style="text;html=1;strokeColor=none;fillColor=none;align=center;verticalAlign=middle;whiteSpace=wrap;rounded=0;fontColor=#A9C4EB;" vertex="1" parent="1">
          <mxGeometry x="110" y="515" width="60" height="30" as="geometry" />
        </mxCell>
        <mxCell id="LeyZFT0NoXOJv5G2dEH9-58" value="MLP" style="text;html=1;strokeColor=none;fillColor=none;align=center;verticalAlign=middle;whiteSpace=wrap;rounded=0;fontColor=#A9C4EB;" vertex="1" parent="1">
          <mxGeometry x="350" y="515" width="60" height="30" as="geometry" />
        </mxCell>
      </root>
    </mxGraphModel>
  </diagram>
</mxfile>
